<svg width="43" height="35" viewBox="0 0 43 35" fill="none" xmlns="http://www.w3.org/2000/svg">
<path d="M0.000624939 22.7435C0.00437663 22.1925 0.500851 21.6471 1.07924 21.6972C12.3968 21.6916 23.7145 21.7244 35.0321 21.7183C36.9917 21.73 38.9513 21.7182 40.9097 21.7331C41.3799 21.6817 41.8108 21.9677 42.0796 22.3287C42.2603 22.5937 42.2841 23.0066 42.0359 23.2381C41.8108 23.4356 41.495 23.3811 41.223 23.3842C37.1805 23.3886 33.1375 23.375 29.0925 23.3842C29.0087 23.3997 28.8424 23.349 28.8505 23.4845C29.0087 23.7124 29.2495 23.869 29.4502 24.0584C31.5461 25.9498 33.4301 28.0547 35.2653 30.1931C35.5254 30.4748 35.8481 30.858 36.2814 30.7577C36.8479 30.5788 37.315 30.1968 37.8108 29.8848C38.1278 29.6879 38.4242 29.4607 38.7362 29.257C39.4016 28.8602 40.025 28.3816 40.7522 28.095C40.9679 28.0046 41.2049 27.8851 41.4431 27.9711C41.7432 28.186 41.6244 28.6305 41.3987 28.8571C40.5427 29.7238 39.6592 30.5664 38.73 31.3558C38.408 31.6789 38.0459 31.9581 37.6908 32.2423C37.1905 32.719 36.6228 33.1221 36.0938 33.5678C35.7537 33.8154 35.406 34.1337 34.9639 34.1473C34.4818 34.0625 34.1761 33.639 33.9184 33.2651C32.8899 31.6498 31.9088 29.9993 30.7333 28.4838C30.0139 27.4807 29.178 26.5648 28.2428 25.7548C27.5032 25.1333 26.6807 24.6156 25.7985 24.2163C24.3979 23.6214 22.8597 23.3979 21.3409 23.427C20.3523 23.427 19.3644 23.4332 18.3764 23.427C18.8022 24.6132 19.153 25.8675 19.0236 27.1391C18.9023 28.7729 18.0444 30.3751 16.6506 31.287C15.6002 32.0591 14.2533 32.3395 12.9615 32.3073C11.831 32.2584 10.7255 31.9711 9.66624 31.5904C9.01532 31.3545 8.4063 31.0258 7.79039 30.7125C7.1639 30.3385 6.55971 29.929 5.98083 29.4861C5.58252 29.1765 5.21611 28.8305 4.82781 28.5098C4.40824 28.1433 4.02307 27.734 3.55661 27.4239C3.49951 27.3811 3.43053 27.3567 3.35897 27.3539C3.28742 27.3511 3.21672 27.3701 3.15643 27.4084C2.90006 27.5681 2.73624 27.8325 2.58804 28.0894C2.17661 28.8515 1.89648 29.6724 1.56258 30.4692C1.48004 30.6698 1.31559 30.8883 1.07236 30.8753C0.850384 30.8202 0.625282 30.6896 0.548998 30.4618C0.440199 30.1838 0.564004 29.8941 0.624032 29.6198C0.959808 28.3816 1.2837 27.1397 1.73328 25.9374C1.93275 25.4229 2.34731 24.9469 2.90569 24.8106C3.10953 24.7487 3.32338 24.8274 3.49533 24.9345C3.8705 25.2056 4.10123 25.6155 4.3776 25.9752C6.18467 28.4763 9.15476 30.164 12.2749 30.2928C13.4736 30.3256 14.7535 30.1244 15.7265 29.3827C16.3192 28.971 16.7469 28.355 17.0102 27.6926C17.3472 26.8518 17.3228 25.9226 17.219 25.0391C17.1521 24.5661 17.0521 24.0436 16.6719 23.7124C16.2967 23.422 15.7965 23.4078 15.3432 23.3719C10.4854 23.3607 5.62692 23.3719 0.768472 23.3675C0.407058 23.3675 0.0150068 23.1323 0 22.7453M34.373 10.4797C35.0452 11.4641 35.743 12.4336 36.3439 13.4638C36.9767 14.5726 37.3294 15.8052 37.7821 16.9927C38.0818 17.7551 38.2873 18.5507 38.3942 19.362C38.7981 19.4041 39.2071 19.4177 39.6098 19.4493C39.5066 18.8921 39.4609 18.3305 39.3059 17.787C39.1627 17.1357 38.8919 16.5234 38.6337 15.9111C38.2241 14.9379 37.6776 14.0303 37.0986 13.1474C36.7022 12.6119 36.3389 12.051 35.8962 11.5508C35.5167 11.0914 35.0915 10.6729 34.6738 10.2507C34.5731 10.3268 34.4718 10.4036 34.3718 10.4804M27.7031 5.66997C28.5998 6.00862 29.4377 6.47913 30.2374 7.00103C30.8002 7.31677 31.2854 7.74395 31.8275 8.08631C32.0057 8.21323 32.1614 7.9854 32.2921 7.88882C31.9142 7.59319 31.521 7.31731 31.1141 7.06232C30.5075 6.72615 29.9123 6.36088 29.2582 6.11944C28.7542 5.92937 28.2459 5.71269 27.7031 5.66997ZM20.1466 0.036169C21.0489 -0.123558 21.9468 0.244186 22.6927 0.720892C23.2349 1.07378 23.5406 1.69288 23.625 2.31631C23.6938 2.63329 23.6469 2.95584 23.6363 3.27529C23.9721 3.36011 24.316 3.40902 24.6555 3.47774C25.7385 3.70309 26.7927 4.04793 27.8257 4.43734C28.868 4.80199 29.8622 5.28489 30.8458 5.78017C31.653 6.20425 32.4171 6.70262 33.2044 7.16076C33.3769 7.27591 33.5758 7.36877 33.7046 7.53593C33.7584 7.73281 33.5558 7.8591 33.4232 7.96373C32.5966 8.54878 31.7837 9.1493 30.9327 9.70711C30.2005 10.2024 29.432 10.7367 28.5298 10.8568C28.0921 10.9379 27.645 10.8357 27.2104 10.936C26.3206 11.0958 25.6472 11.7409 24.9594 12.2689C24.6111 12.5401 24.3047 12.8602 23.9533 13.1289C23.535 13.4551 23.1673 13.8396 22.744 14.1603C21.8567 14.9342 20.9776 15.7173 20.0703 16.4683C19.9453 16.5463 19.9134 16.685 19.9259 16.823C20.1385 16.953 20.3304 16.7562 20.4961 16.6435C21.4153 16.0102 22.3188 15.3552 23.2286 14.7082C24.1215 14.1126 24.9719 13.4576 25.8598 12.8546C26.1099 12.672 26.457 13.0063 26.3444 13.2688C26.2849 13.3539 26.2088 13.4263 26.1205 13.4818C24.4548 14.6413 22.8553 15.8901 21.2527 17.1344C21.052 17.2917 20.8388 17.4378 20.6662 17.6254C20.5412 17.7492 20.6625 17.9968 20.8444 17.9207C21.0833 17.8223 21.2777 17.6446 21.5003 17.5164C22.9272 16.5122 24.3766 15.5421 25.7954 14.5243C26.0949 14.3466 26.3525 14.1058 26.6608 13.9436C26.8678 13.8309 27.141 14.0445 27.0985 14.2649C27.0841 14.4104 26.9422 14.4828 26.839 14.5652C25.2508 15.6659 23.7038 16.8249 22.1606 17.9863C21.8899 18.1888 21.5979 18.3702 21.3678 18.6215C21.2834 18.694 21.3159 18.8568 21.4303 18.8784C21.6554 18.9267 21.823 18.7292 22.0087 18.6382C23.7632 17.496 25.5003 16.3278 27.1985 15.1094C27.2597 15.0624 27.3315 15.0307 27.4076 15.0169C27.4838 15.0031 27.5622 15.0077 27.6362 15.0301C27.8276 15.1125 27.8626 15.4059 27.6856 15.5223C27.3861 15.7508 27.056 15.9371 26.7477 16.1526C25.5465 17.0094 24.3322 17.8495 23.1567 18.7398C22.8047 18.9812 22.4689 19.2419 22.1337 19.5093C22.0575 19.5712 21.9699 19.6666 22.0381 19.7681C22.0802 19.8116 22.1369 19.8385 22.1975 19.8436C22.2582 19.8488 22.3187 19.8318 22.3676 19.7959C24.004 18.8432 25.6153 17.8483 27.2448 16.8862C27.8076 16.511 28.4228 16.2182 28.9331 15.7749C29.2915 15.4637 29.5961 15.0964 29.8347 14.6878C30.1949 14.0451 30.0623 13.2354 30.505 12.6268C30.9715 11.9557 31.6931 11.5248 32.329 11.0283C32.8623 10.6463 33.3888 10.2532 33.9447 9.90337C34.3505 9.64335 34.7338 9.34618 35.174 9.14064C35.3747 9.02858 35.5567 9.22483 35.6949 9.34742C37.3369 10.9404 38.5787 12.9017 39.5091 14.9725C40.246 16.6105 40.7055 18.3575 40.8691 20.1433C40.911 20.3971 40.6371 20.5519 40.4126 20.5203C30.7626 20.4844 21.112 20.5011 11.4621 20.4739C11.3351 20.4725 11.2084 20.4636 11.0825 20.4472C11.402 19.8349 11.8122 19.2753 12.1943 18.7014C12.56 18.1262 12.9934 17.5988 13.4098 17.0608C13.8475 16.5933 14.2496 16.0176 14.8911 15.8226C16.0004 15.7984 17.0452 15.3013 17.9025 14.6296C19.4907 13.3468 20.5455 11.4034 20.6575 9.36723C20.675 8.62059 20.5855 7.85291 20.2535 7.17376C20.0619 6.78721 19.7744 6.45509 19.4179 6.20845C19.0614 5.96181 18.6476 5.8087 18.2151 5.76345C17.2722 5.64644 16.343 6.00304 15.5495 6.48037C14.2132 7.39993 13.1919 8.70118 12.622 10.2104C12.2555 11.2264 12.0973 12.3346 12.2987 13.4025C12.3962 13.8817 12.5907 14.3343 12.7989 14.7751C12.6326 15.0549 12.5232 15.362 12.38 15.6536C11.9973 16.4547 11.442 17.1549 10.9256 17.8743C10.3288 18.697 9.67879 19.4805 8.97968 20.22C8.85462 20.3438 8.72081 20.4974 8.52448 20.4627C6.31598 20.4689 4.10686 20.4578 1.89648 20.4627C1.70389 20.4862 1.45878 20.3686 1.50943 20.1426C1.63449 18.3076 2.06656 16.4844 2.83941 14.8085C3.17393 14.1368 3.47094 13.4465 3.86112 12.8032C4.976 10.9088 6.37163 9.1654 8.05926 7.73962C10.793 5.3468 14.2527 3.79905 17.8599 3.27282C17.7347 2.64091 17.8589 1.98549 18.207 1.44152C18.6403 0.756182 19.32 0.170514 20.1453 0.0374075" fill="#96F007"/>
</svg>
